<svg id="Layer_1" data-name="Layer 1" xmlns="http://www.w3.org/2000/svg" viewBox="0 0 589.27 248.17"><title>logo2</title><path d="M187,93.62V96h5.1a9.33,9.33,0,0,1,9.36,9.36,9.44,9.44,0,0,1-9.36,9.36H187v60.06a9.36,9.36,0,0,1-18.72,0V114.73h-4.43a9.49,9.49,0,0,1-9.53-9.36A9.37,9.37,0,0,1,163.82,96h4.43V93.62c0-6.29.68-11.74,3.23-16.67A20.25,20.25,0,0,1,183.73,66.4,34.45,34.45,0,0,1,193.94,65a9.44,9.44,0,0,1,0,18.88,12.1,12.1,0,0,0-4.42.52,1.78,1.78,0,0,0-1,.51C188.33,85,187,87.33,187,93.62Z"/><path d="M284.3,142v33.36a9.07,9.07,0,0,1-9,9,9.25,9.25,0,0,1-8.84-7.31,38.7,38.7,0,0,1-22.64,7.31,39.53,39.53,0,0,1-28.93-12.42,43.59,43.59,0,0,1-11.57-30A43,43,0,0,1,214.87,112,39.22,39.22,0,0,1,243.8,99.24a38.78,38.78,0,0,1,22.64,7.49c1-4.26,4.42-7.49,8.84-7.49a9.11,9.11,0,0,1,9,9.19Zm-18,0a25,25,0,0,0-6.64-17.52,21,21,0,0,0-15.83-7,20.49,20.49,0,0,0-15.82,7c-4.09,4.25-6.47,10.37-6.47,17.52A25.49,25.49,0,0,0,228,159.48a21.44,21.44,0,0,0,15.82,6.64,22,22,0,0,0,15.83-6.64A25.66,25.66,0,0,0,266.27,142Z"/><path d="M318,78a9.19,9.19,0,0,1-9.19,9.36A9.3,9.3,0,0,1,299.62,78V74.4a9.15,9.15,0,0,1,9.19-9.19A9,9,0,0,1,318,74.4Zm0,30.8v66.37a9,9,0,0,1-9.19,9.18,9.15,9.15,0,0,1-9.19-9.18V108.77a9.09,9.09,0,0,1,9.19-9.36A9,9,0,0,1,318,108.77Z"/><path d="M333.32,175V74.57a9.33,9.33,0,0,1,9.36-9.36,9.48,9.48,0,0,1,9.53,9.36v58.87l34.88-34.88a9.57,9.57,0,0,1,13.28,0,9.25,9.25,0,0,1,0,13.27l-25.53,25.53,26.21,31.48a9.44,9.44,0,0,1-1.36,13.27,9,9,0,0,1-6,2.21,9.06,9.06,0,0,1-7.15-3.4l-25-30.29L352.21,160v15a9.48,9.48,0,0,1-9.53,9.35A9.32,9.32,0,0,1,333.32,175Z"/><path d="M130.16,151.14a.11.11,0,0,1-.11.11,4.66,4.66,0,0,1-.74.73L99.74,182a6.86,6.86,0,0,1-9.48,0,6.67,6.67,0,0,1,0-9.47l24.95-25.16L90.26,122.2a6.68,6.68,0,0,1,0-9.48,6.89,6.89,0,0,1,9.48,0l29.57,30a4.69,4.69,0,0,1,.74.74c.11,0,.11.21.11.21a8,8,0,0,1,.52,1c0,.1.11.1.11.21a4.63,4.63,0,0,0,.31.94c0,.11.11.11.11.32v.74c0,.1.1.42.1.52s-.1.42-.1.53v.84c0,.11-.11.11-.11.21a8.19,8.19,0,0,0-.31.95c0,.1-.11.1-.11.31S130.37,150.72,130.16,151.14Z"/><path d="M426.15,179.15a4.72,4.72,0,0,1,4.73-4.72h60.7a4.73,4.73,0,1,1,0,9.45h-60.7A4.72,4.72,0,0,1,426.15,179.15Z"/></svg>