<?xml version="1.0" standalone="no"?>
<!DOCTYPE svg PUBLIC "-//W3C//DTD SVG 20010904//EN"
 "http://www.w3.org/TR/2001/REC-SVG-20010904/DTD/svg10.dtd">
<svg version="1.0" xmlns="http://www.w3.org/2000/svg"
 width="700.000000pt" height="700.000000pt" viewBox="0 0 700.000000 700.000000"
 preserveAspectRatio="xMidYMid meet">
<metadata>
Created by potrace 1.11, written by Peter Selinger 2001-2013
</metadata>
<g transform="translate(0.000000,700.000000) scale(0.100000,-0.100000)"
fill="#000000" stroke="none">
<path d="M1710 4474 c-135 -36 -231 -145 -261 -297 -6 -29 -12 -83 -14 -122
-2 -38 -4 -72 -4 -75 -1 -3 -24 -4 -51 -4 -102 3 -172 -60 -174 -155 -1 -54
17 -87 68 -126 28 -21 47 -27 98 -28 l63 -2 0 -520 c0 -517 0 -520 22 -555 12
-20 41 -46 64 -59 72 -41 166 -12 206 62 16 29 18 80 18 544 1 282 4 516 8
520 4 4 30 8 58 9 27 1 67 9 87 18 82 37 112 141 63 219 -35 57 -73 72 -201
76 -13 1 -15 12 -12 59 7 118 25 142 113 142 77 0 146 60 156 138 8 57 -25
121 -76 150 -47 26 -145 29 -231 6z"/>
<path d="M3701 4468 c-60 -30 -85 -84 -79 -179 6 -107 60 -164 152 -164 92 1
146 57 151 157 5 104 -23 165 -92 194 -45 20 -81 17 -132 -8z"/>
<path d="M4257 4465 c-17 -11 -40 -33 -51 -48 -21 -28 -21 -33 -24 -906 l-2
-877 23 -44 c42 -80 145 -106 220 -55 62 43 71 70 71 233 l1 144 73 74 c40 41
77 74 81 74 6 0 166 -189 321 -381 122 -150 135 -161 204 -166 37 -3 61 1 86
15 70 38 100 140 63 209 -10 18 -115 149 -234 292 l-217 259 228 229 c194 195
230 235 235 267 24 127 -73 218 -198 185 -30 -8 -93 -65 -332 -304 -162 -162
-298 -295 -303 -295 -4 0 -7 223 -7 496 0 454 -1 499 -18 535 -36 79 -150 113
-220 64z"/>
<path d="M2640 3922 c-357 -34 -621 -336 -621 -710 0 -243 112 -460 306 -594
52 -36 159 -83 210 -92 17 -3 41 -8 55 -11 14 -3 61 -6 106 -5 123 0 259 40
346 102 l27 19 7 -25 c7 -31 64 -83 100 -92 77 -19 163 30 181 105 5 20 9 295
8 611 -1 648 1 626 -75 669 -58 32 -113 30 -157 -6 -20 -15 -43 -43 -53 -60
l-16 -31 -50 31 c-97 61 -262 100 -374 89z m164 -322 c155 -48 268 -223 260
-402 -6 -108 -51 -218 -118 -283 -155 -151 -418 -132 -542 39 -114 157 -106
401 18 541 97 111 237 149 382 105z"/>
<path d="M3700 3902 c-19 -10 -45 -37 -57 -58 l-23 -39 0 -588 c0 -657 -2
-634 69 -683 55 -37 137 -32 187 12 50 44 48 31 50 649 1 368 -2 593 -9 617
-5 20 -24 51 -42 68 -43 41 -122 51 -175 22z"/>
<path d="M162 3717 c-42 -24 -58 -61 -54 -125 2 -19 156 -183 440 -466 2 -2
-94 -103 -213 -223 -118 -120 -218 -227 -221 -239 -11 -44 -11 -60 3 -86 26
-52 87 -75 139 -53 17 7 49 31 70 53 21 22 139 141 261 265 136 137 225 235
229 252 3 14 3 40 -2 56 -10 33 -501 542 -546 565 -33 17 -75 17 -106 1z"/>
<path d="M5810 2672 c-38 -4 -67 -22 -79 -48 -16 -36 8 -88 45 -101 17 -5 248
-9 545 -8 474 0 517 2 542 18 15 10 28 24 28 32 1 8 2 21 3 28 3 22 -16 54
-39 67 -16 9 -155 12 -521 13 -274 1 -510 1 -524 -1z"/>
</g>
</svg>
