<?xml version="1.0" encoding="UTF-8"?>
<svg id="Layer_2" data-name="Layer 2" xmlns="http://www.w3.org/2000/svg" viewBox="0 0 56 55">
  <defs>
    <style>
      .cls-1 {
        fill-rule: evenodd;
        stroke-width: 0px;
      }
    </style>
  </defs>
  <g id="Layer_1-2" data-name="Layer 1">
    <g id="Icon-Architecture_64_Arch_AWS-Cloud-Development-Kit_64" data-name="Icon-Architecture/64/Arch_AWS-Cloud-Development-Kit_64">
      <path id="AWS-Cloud-Development-Kit_Icon_64_Squid" data-name="AWS-Cloud-Development-Kit Icon 64 Squid" class="cls-1" d="m56,26.31c0,6.93-4.73,9.47-7.55,10.37l-.6-1.91c2.81-.9,6.17-3.09,6.17-8.46,0-6.79-5.56-8.49-7.95-8.9-.53-.09-.89-.6-.81-1.13h0c-.24-3.09-1.68-5.32-3.86-5.96-1.82-.53-3.77.17-4.97,1.81-.22.3-.58.45-.94.39-.36-.05-.67-.31-.79-.66-.82-2.35-2.02-4.33-3.55-5.87C29.26,4.08,24.1,0,16.81,3.1c-4.21,1.8-7.51,6.97-7.51,11.77,0,.53.03,1.07.1,1.6.06.5-.26.96-.74,1.09-2.49.64-6.68,2.62-6.68,8.66,0,.2,0,.39.01.58.19,3.89,3.03,7.23,6.91,8.12l-.44,1.95C3.72,35.78.25,31.67.02,26.9c-.01-.22-.02-.45-.02-.68,0-6.91,4.64-9.45,7.35-10.35-.02-.33-.03-.66-.03-.99,0-5.64,3.75-11.5,8.72-13.62C21.86-1.23,28.04.01,32.55,4.57c1.4,1.42,2.55,3.14,3.43,5.13,1.67-1.41,3.88-1.92,5.97-1.31,2.88.85,4.81,3.52,5.24,7.21,2.82.66,8.82,2.99,8.82,10.71h0Zm-11.1,22.01l-6.94,3.89v-8.65l6.94-3.94v8.7Zm-17.89-.02l-6.92,3.99v-8.76l6.92-3.93v8.7Zm-7.92-6.5l-6.92-3.88,6.93-3.88,6.87,3.86-6.88,3.91Zm-7.97-2.18l6.98,3.92v8.76l-6.98-3.99v-8.68Zm16.91-20.55l6.88,3.84-6.91,3.86-6.86-3.84,6.88-3.86Zm2,18.83l6.92-3.88,6.91,3.9-6.89,3.92-6.94-3.94Zm-1.04,1.7l6.98,3.96v8.65l-6.98-3.92v-8.69Zm6.97-7.32l-6.97,3.91v-7.68l6.97-3.9v7.67Zm-15.87-7.65l6.91,3.87v7.68l-6.91-3.89v-7.67Zm26.29,12.42s-.01,0-.02,0h0s-8.43-4.76-8.43-4.76v-9.38c0-.35-.19-.68-.49-.86,0,0-.01,0-.02,0h0s-8.93-4.99-8.93-4.99c-.3-.17-.67-.17-.96,0l-8.92,5.01h0s-.01,0-.02.01c-.3.18-.49.51-.49.86v9.37l-8.47,4.74h0s-.02,0-.02.01c-.3.18-.49.51-.49.86v10.96c0,.36.19.69.5.87l8.96,5.13h0s0,0,0,0c.15.09.32.13.49.13s.34-.04.49-.13l8.42-4.85,8.48,4.76h0c.15.08.31.13.48.13s.33-.04.48-.13l8.92-5c.31-.18.51-.51.51-.87v-11c0-.36-.19-.68-.49-.86h0Z"/>
    </g>
  </g>
</svg>