<svg id="Capa_1" enable-background="new 0 0 512 512" height="512" viewBox="0 0 512 512" width="512" xmlns="http://www.w3.org/2000/svg"><g><g><path d="m467 152h-211-211c-8.291 0-15 6.709-15 15v300h226 226v-300c0-8.291-6.709-15-15-15z" fill="#453d83"/><path d="m482 167c0-8.291-6.709-15-15-15h-211v315h226z" fill="#2d2755"/><path d="m256 182h-196v240h196 196v-240z" fill="#edf5ff"/><path d="m256 182h196v240h-196z" fill="#d5e8fe"/><path d="m497 452h-241-241c-8.284 0-15 6.714-15 15 0 24.853 20.147 45 45 45h211 211c24.853 0 45-20.147 45-45 0-8.286-6.716-15-15-15z" fill="#d5e8fe"/><path d="m512 467c0-8.286-6.716-15-15-15h-241v60h211c24.853 0 45-20.147 45-45z" fill="#a8d3d8"/></g><path d="m346 302h-60c-8.276 0-15-6.724-15-15v-120c0-8.291-6.709-15-15-15s-15 6.709-15 15v120c0 13.248 5.861 25.052 15 33.296 7.98 7.196 18.433 11.704 30 11.704h60c8.276 0 15 6.724 15 15s-6.724 15-15 15h-90-120c-8.291 0-15 6.709-15 15s6.709 15 15 15h120 90c24.814 0 45-20.186 45-45s-20.186-45-45-45z" fill="#d5e8fe"/><path d="m391 347c0-24.814-20.186-45-45-45h-60c-8.276 0-15-6.724-15-15v-120c0-8.291-6.709-15-15-15v168.296c7.98 7.196 18.433 11.704 30 11.704h60c8.276 0 15 6.724 15 15s-6.724 15-15 15h-90v30h90c24.814 0 45-20.186 45-45z" fill="#a8d3d8"/><path d="m389.418 250.291-120-242.667c-2.549-5.082-7.983-7.624-13.418-7.624s-10.869 2.542-13.418 7.625l-120 242.667c-2.622 5.244-1.948 11.528 1.714 16.099 3.662 4.556 9.683 6.577 15.337 5.156l116.367-29.078 116.367 29.077c5.539 1.417 11.611-.522 15.337-5.156 3.662-4.571 4.336-10.855 1.714-16.099z" fill="#97de3d"/><path d="m387.704 266.39c3.662-4.57 4.336-10.854 1.714-16.099l-120-242.667c-2.549-5.082-7.983-7.624-13.418-7.624v242.469l116.367 29.077c5.539 1.417 11.611-.522 15.337-5.156z" fill="#59c36a"/></g></svg>