<?xml version="1.0" encoding="UTF-8" standalone="no"?>
<svg
   xmlns:dc="http://purl.org/dc/elements/1.1/"
   xmlns:cc="http://creativecommons.org/ns#"
   xmlns:rdf="http://www.w3.org/1999/02/22-rdf-syntax-ns#"
   xmlns:svg="http://www.w3.org/2000/svg"
   xmlns="http://www.w3.org/2000/svg"
   xmlns:sodipodi="http://sodipodi.sourceforge.net/DTD/sodipodi-0.dtd"
   xmlns:inkscape="http://www.inkscape.org/namespaces/inkscape"
   width="64"
   height="64"
   version="1.1"
   id="svg4"
   sodipodi:docname="grpcio-icon.svg"
   inkscape:version="1.0.1 (1.0.1+r74)">
  <metadata
     id="metadata10">
    <rdf:RDF>
      <cc:Work
         rdf:about="">
        <dc:format>image/svg+xml</dc:format>
        <dc:type
           rdf:resource="http://purl.org/dc/dcmitype/StillImage" />
      </cc:Work>
    </rdf:RDF>
  </metadata>
  <defs
     id="defs8" />
  <sodipodi:namedview
     pagecolor="#ffffff"
     bordercolor="#666666"
     borderopacity="1"
     objecttolerance="10"
     gridtolerance="10"
     guidetolerance="10"
     inkscape:pageopacity="0"
     inkscape:pageshadow="2"
     inkscape:window-width="1920"
     inkscape:window-height="1043"
     id="namedview6"
     showgrid="false"
     inkscape:zoom="13.5625"
     inkscape:cx="32"
     inkscape:cy="37.898618"
     inkscape:window-x="1080"
     inkscape:window-y="427"
     inkscape:window-maximized="1"
     inkscape:current-layer="svg4" />
  <path
     d="M27.125 36.16v12.46c0 2.593.44 4.847 1.323 6.762s2.044 3.506 3.485 4.773 3.06 2.225 4.853 2.873S40.39 64 42.212 64s3.632-.324 5.426-.972 3.412-1.606 4.853-2.873 2.603-2.858 3.485-4.773 1.323-4.17 1.323-6.762V27.86l-16.126-.025-.02 8.325H48.3v12.46c0 2.18-.603 3.786-1.8 4.818s-2.632 1.547-4.28 1.547-3.073-.516-4.28-1.547-1.8-2.637-1.8-4.818V15.38c0-2.18.603-3.786 1.8-4.818s2.632-1.547 4.28-1.547 3.073.516 4.28 1.547 1.8 2.638 1.8 4.818v3.182h9V15.38c0-2.534-.44-4.773-1.323-6.718s-2.044-3.55-3.485-4.818S49.432 1.62 47.64.97 44.035 0 42.212 0s-3.632.324-5.426.972-3.412 1.606-4.853 2.873-2.603 2.873-3.485 4.818-1.323 4.184-1.323 6.718v12.46h-9.207v-9.28h2.824l-7.02-9.92-7.02 9.92h2.92V32c0 2.298 1.857 4.16 4.15 4.16h13.355z"
     fill="#2da6b0"
     fill-rule="evenodd"
     id="path2"
     style="fill:#212121;fill-opacity:1" />
</svg>
