<?xml version="1.0" encoding="UTF-8" standalone="no"?>
<svg
   xmlns:dc="http://purl.org/dc/elements/1.1/"
   xmlns:cc="http://creativecommons.org/ns#"
   xmlns:rdf="http://www.w3.org/1999/02/22-rdf-syntax-ns#"
   xmlns:svg="http://www.w3.org/2000/svg"
   xmlns="http://www.w3.org/2000/svg"
   xmlns:sodipodi="http://sodipodi.sourceforge.net/DTD/sodipodi-0.dtd"
   xmlns:inkscape="http://www.inkscape.org/namespaces/inkscape"
   version="1.0"
   width="600"
   height="600"
   viewBox="0 0 6000 6000"
   preserveAspectRatio="xMidYMid meet"
   id="svg5"
   sodipodi:docname="infino.svg"
   inkscape:version="1.0.1 (1.0.1+r74)">
  <metadata
     id="metadata11">
    <rdf:RDF>
      <cc:Work
         rdf:about="">
        <dc:format>image/svg+xml</dc:format>
        <dc:type
           rdf:resource="http://purl.org/dc/dcmitype/StillImage" />
        <dc:title></dc:title>
      </cc:Work>
    </rdf:RDF>
  </metadata>
  <defs
     id="defs9" />
  <sodipodi:namedview
     pagecolor="#ffffff"
     bordercolor="#666666"
     borderopacity="1"
     objecttolerance="10"
     gridtolerance="10"
     guidetolerance="10"
     inkscape:pageopacity="0"
     inkscape:pageshadow="2"
     inkscape:window-width="1920"
     inkscape:window-height="1043"
     id="namedview7"
     showgrid="false"
     inkscape:zoom="0.51541667"
     inkscape:cx="-41.522319"
     inkscape:cy="-23.767043"
     inkscape:window-x="1080"
     inkscape:window-y="427"
     inkscape:window-maximized="1"
     inkscape:current-layer="layer101"
     inkscape:document-rotation="0" />
  <g
     id="layer101"
     fill="none"
     stroke-width="5"
     stroke="#000000"
     transform="translate(-3293.4046,-4440.0196)">
    <path
       id="path856"
       style="fill:#212121;fill-opacity:1;stroke-width:10.1239"
       d="m 8131.4782,5216.576 c -14.83,-0.2814 -29.671,-0.2247 -44.4896,0.2025 -79.0325,2.2479 -157.6602,14.5411 -233.2044,37.4109 -135.8012,41.1433 -268.8882,138.1687 -391.5082,208.4484 -225.8428,129.484 -451.0871,259.9201 -676.2415,390.5988 -116.8292,67.8095 -232.0215,138.4312 -349.9845,204.2565 -39.3818,21.9486 -101.6277,69.504 -148.2986,66.9122 -44.0388,-2.4499 -98.5112,-45.7735 -136.4347,-66.9122 -101.178,-56.4506 -202.06,-113.4495 -302.5292,-171.1959 -246.212,-141.4909 -489.9766,-287.0678 -735.561,-429.5914 -239.4695,-139.0004 -470.5564,-270.2602 -759.2885,-232.2552 -327.5876,43.1478 -627.8109,273.2406 -747.0293,584.7314 -81.0281,295.2354 -65.6469,901.6552 -65.6469,901.6552 4.0723,803.0639 -9.6648,1431.0972 19.9821,2174.3897 23.7303,198.4882 119.9751,358.8809 259.0566,500.8374 62.201,63.4161 136.0271,122.7446 213.3126,166.9251 213.1069,121.9114 480.5436,144.6386 711.8331,60.3474 169.6352,-61.7555 325.633,-165.881 480.4873,-256.8135 179.7186,-105.5309 360.7565,-208.954 539.8069,-315.6189 121.8304,-72.5474 244.5326,-143.9674 367.7804,-214.0244 38.3694,-21.827 102.883,-77.4035 148.2986,-74.3866 43.9172,2.9157 97.6603,42.9982 136.4347,62.7599 112.6784,57.2403 223.1954,121.232 332.1888,185.2349 242.3447,142.3009 485.2798,283.9884 729.629,422.9081 258.5428,146.9981 492.946,282.7124 800.8122,227.1933 342.7531,-61.8769 610.0233,-313.6891 725.5162,-638.1585 44.9094,-126.2241 38.1659,-265.4455 39.7043,-397.4402 0,0 1.9033,-1681.9797 -1.0286,-2538.8714 -22.5964,-236.5742 -133.343,-460.9862 -307.4327,-622.3401 -161.9564,-150.0686 -383.715,-232.9762 -606.1655,-237.1985 z m -3651.704,527.6265 c 112.7253,4.6503 218.2899,74.5113 313.1275,128.565 l 3717.43,2188.2542 c 21.827,21.6853 12.6931,63.2094 13.7621,91.2728 31.1392,380.4039 18.3209,749.761 -193.6946,907.3417 -36.8912,21.4221 -79.1906,50.8626 -120.6985,60.2373 -153.1131,34.5831 -274.4752,-44.1507 -403.372,-116.8197 C 7585.4668,8878.6115 7368.1175,8748.1551 7147.8829,8622.579 6465.2117,8233.398 5792.881,7825.5738 5113.2265,7431.1284 4875.4983,7293.1607 4637.0767,7155.958 4401.3934,7014.5478 c -98.505,-59.103 -231.5803,-112.1174 -313.5227,-192.9462 -24.0341,-23.7101 -24.1939,-66.9342 -24.5583,-98.9054 l 10.8345,-616.9219 c 4.3533,-45.7802 1.707,-93.3072 20.841,-136.4348 37.195,-83.785 118.6795,-146.8865 199.6297,-185.1952 43.8161,-20.7336 88.65,-31.1881 136.4346,-37.6876 16.3854,-2.2323 32.6175,-2.9185 48.721,-2.2542 z m 3639.0097,0.081 c 122.6259,3.5267 241.3044,61.3629 320.483,153.8746 89.2316,104.2757 79.6789,205.3168 91.7868,332.1889 l -16.4512,1202.7607 -1675.1805,-977.3469 895.7234,-545.7389 c 129.4589,-80.3597 237.4347,-169.1157 383.6385,-165.7384 z m -4048.7487,1705.5916 1665.0567,992.8492 -876.9388,525.8074 c 0,0 -269.0483,177.0177 -409.3041,174.1223 -64.813,-1.3768 -146.5919,-36.0516 -201.6858,-68.7315 -164.3709,-97.4521 -178.4727,-417.4109 -178.4727,-417.4109 z"
       sodipodi:nodetypes="sscccccccccccccccccccccccccccsscccccccssccccccssccccccccccccscc" />
  </g>
</svg>
