<?xml version="1.0" encoding="UTF-8"?>
<svg id="Layer_2" data-name="Layer 2" xmlns="http://www.w3.org/2000/svg" viewBox="0 0 181.77 186.21">
  <defs>
    <style>
      .cls-1 {
        stroke-width: 0px;
      }
    </style>
  </defs>
  <g id="Layer_1-2" data-name="Layer 1">
    <g>
      <path class="cls-1" d="m122.46,127.8c4.12,0,7.45-3.99,7.45-8.91s-3.34-8.91-7.45-8.91-7.45,3.99-7.45,8.91,3.34,8.91,7.45,8.91Z"/>
      <path class="cls-1" d="m168.18,40.42L104.48,3.64c-8.41-4.86-18.77-4.86-27.19,0L13.59,40.42C5.18,45.27,0,54.25,0,63.96v73.55c0,9.71,5.18,18.69,13.59,23.54l43.56,25.15c-2.54-5.1-4.11-9.9-3.46-14.84.42-3.18,2.62-8.57,8.82-12.99,1.37-.98,3.3-.32,3.77,1.29.42,1.46,1.5,2.7,3.17,3.02,5.31,1.03,12.29,1.63,21.43,1.63s16.1-.6,21.4-1.62c1.68-.32,2.75-1.55,3.16-3,.46-1.63,2.39-2.32,3.77-1.34,6.22,4.42,8.42,9.82,8.85,13,.66,4.93-.92,9.73-3.46,14.84l43.56-25.15c8.41-4.86,13.59-13.83,13.59-23.54V63.96c0-9.71-5.18-18.69-13.59-23.54ZM37.38,86.45c0-2.15.02-12.96.05-24.47,0-3.25,1.36-6.38,3.81-8.53,9.77-8.57,25.74-17.59,49.64-17.59s39.88,9.02,49.65,17.59c2.44,2.14,3.79,5.27,3.8,8.51.03,11.51.05,22.33.05,24.47v27.94c0,16.73-8.84,25.21-26.27,25.21h-54.46c-17.43,0-26.27-8.48-26.27-25.21v-27.94Zm93.22,67.39c-6.45,1.1-22.21,1.38-39.72,1.38s-33.26-.28-39.72-1.38c-20.26-3.44-27.37-28.81-27.37-48.51s2.2-31.82,5.4-37.33c.49-.84,1.33-2.18,2.53-3.83-.02,10.09-.03,20.7-.03,22.27v27.94c0,19.92,11.35,30.89,31.95,30.89h54.46c20.6,0,31.95-10.97,31.95-30.89v-27.94c0-1.58-.01-12.19-.03-22.27,1.2,1.65,2.04,2.98,2.53,3.83,3.2,5.5,5.4,18.41,5.4,37.33s-7.11,45.07-27.37,48.51Z"/>
      <ellipse class="cls-1" cx="59.31" cy="118.89" rx="7.45" ry="8.91"/>
    </g>
  </g>
</svg>