<?xml version="1.0" encoding="UTF-8" standalone="no"?>
<svg
   xmlns:dc="http://purl.org/dc/elements/1.1/"
   xmlns:cc="http://creativecommons.org/ns#"
   xmlns:rdf="http://www.w3.org/1999/02/22-rdf-syntax-ns#"
   xmlns:svg="http://www.w3.org/2000/svg"
   xmlns="http://www.w3.org/2000/svg"
   xmlns:sodipodi="http://sodipodi.sourceforge.net/DTD/sodipodi-0.dtd"
   xmlns:inkscape="http://www.inkscape.org/namespaces/inkscape"
   id="Layer_1"
   data-name="Layer 1"
   viewBox="0 0 599.99998 600"
   version="1.1"
   sodipodi:docname="logo.svg"
   width="600"
   height="600"
   inkscape:version="1.0.1 (1.0.1+r74)">
  <metadata
     id="metadata21">
    <rdf:RDF>
      <cc:Work
         rdf:about="">
        <dc:format>image/svg+xml</dc:format>
        <dc:type
           rdf:resource="http://purl.org/dc/dcmitype/StillImage" />
        <dc:title>logo2</dc:title>
      </cc:Work>
    </rdf:RDF>
  </metadata>
  <defs
     id="defs19" />
  <sodipodi:namedview
     pagecolor="#ffffff"
     bordercolor="#666666"
     borderopacity="1"
     objecttolerance="10"
     gridtolerance="10"
     guidetolerance="10"
     inkscape:pageopacity="0"
     inkscape:pageshadow="2"
     inkscape:window-width="1920"
     inkscape:window-height="1043"
     id="namedview17"
     showgrid="false"
     inkscape:zoom="0.7421819"
     inkscape:cx="250.86789"
     inkscape:cy="89.823186"
     inkscape:window-x="1080"
     inkscape:window-y="427"
     inkscape:window-maximized="1"
     inkscape:current-layer="Layer_1" />
  <title
     id="title2">logo2</title>
  <g
     id="g852"
     transform="matrix(1.4258644,0,0,1.4258644,-116.93296,122.22536)">
    <path
       d="M 187,93.62 V 96 h 5.1 a 9.33,9.33 0 0 1 9.36,9.36 9.44,9.44 0 0 1 -9.36,9.36 H 187 v 60.06 a 9.36,9.36 0 0 1 -18.72,0 v -60.05 h -4.43 a 9.49,9.49 0 0 1 -9.53,-9.36 9.37,9.37 0 0 1 9.5,-9.37 h 4.43 v -2.38 c 0,-6.29 0.68,-11.74 3.23,-16.67 a 20.25,20.25 0 0 1 12.25,-10.55 34.45,34.45 0 0 1 10.21,-1.4 9.44,9.44 0 0 1 0,18.88 12.1,12.1 0 0 0 -4.42,0.52 1.78,1.78 0 0 0 -1,0.51 C 188.33,85 187,87.33 187,93.62 Z"
       id="path4" />
    <path
       d="m 284.3,142 v 33.36 a 9.07,9.07 0 0 1 -9,9 9.25,9.25 0 0 1 -8.84,-7.31 38.7,38.7 0 0 1 -22.64,7.31 39.53,39.53 0 0 1 -28.93,-12.42 43.59,43.59 0 0 1 -11.57,-30 43,43 0 0 1 11.55,-29.94 39.22,39.22 0 0 1 28.93,-12.76 38.78,38.78 0 0 1 22.64,7.49 c 1,-4.26 4.42,-7.49 8.84,-7.49 a 9.11,9.11 0 0 1 9,9.19 z m -18,0 a 25,25 0 0 0 -6.64,-17.52 21,21 0 0 0 -15.83,-7 20.49,20.49 0 0 0 -15.82,7 c -4.09,4.25 -6.47,10.37 -6.47,17.52 a 25.49,25.49 0 0 0 6.46,17.48 21.44,21.44 0 0 0 15.82,6.64 22,22 0 0 0 15.83,-6.64 25.66,25.66 0 0 0 6.62,-17.48 z"
       id="path6" />
    <path
       d="m 318,78 a 9.19,9.19 0 0 1 -9.19,9.36 9.3,9.3 0 0 1 -9.19,-9.36 v -3.6 a 9.15,9.15 0 0 1 9.19,-9.19 9,9 0 0 1 9.19,9.19 z m 0,30.8 v 66.37 a 9,9 0 0 1 -9.19,9.18 9.15,9.15 0 0 1 -9.19,-9.18 v -66.4 a 9.09,9.09 0 0 1 9.19,-9.36 9,9 0 0 1 9.19,9.36 z"
       id="path8" />
    <path
       d="M 333.32,175 V 74.57 a 9.33,9.33 0 0 1 9.36,-9.36 9.48,9.48 0 0 1 9.53,9.36 v 58.87 l 34.88,-34.88 a 9.57,9.57 0 0 1 13.28,0 9.25,9.25 0 0 1 0,13.27 l -25.53,25.53 26.21,31.48 a 9.44,9.44 0 0 1 -1.36,13.27 9,9 0 0 1 -6,2.21 9.06,9.06 0 0 1 -7.15,-3.4 l -25,-30.29 -9.33,9.37 v 15 a 9.48,9.48 0 0 1 -9.53,9.35 9.32,9.32 0 0 1 -9.36,-9.35 z"
       id="path10" />
    <path
       d="m 130.16,151.14 a 0.11,0.11 0 0 1 -0.11,0.11 4.66,4.66 0 0 1 -0.74,0.73 L 99.74,182 a 6.86,6.86 0 0 1 -9.48,0 6.67,6.67 0 0 1 0,-9.47 L 115.21,147.37 90.26,122.2 a 6.68,6.68 0 0 1 0,-9.48 6.89,6.89 0 0 1 9.48,0 l 29.57,30 a 4.69,4.69 0 0 1 0.74,0.74 c 0.11,0 0.11,0.21 0.11,0.21 a 8,8 0 0 1 0.52,1 c 0,0.1 0.11,0.1 0.11,0.21 a 4.63,4.63 0 0 0 0.31,0.94 c 0,0.11 0.11,0.11 0.11,0.32 v 0.74 c 0,0.1 0.1,0.42 0.1,0.52 0,0.1 -0.1,0.42 -0.1,0.53 v 0.84 c 0,0.11 -0.11,0.11 -0.11,0.21 a 8.19,8.19 0 0 0 -0.31,0.95 c 0,0.1 -0.11,0.1 -0.11,0.31 0,0.21 -0.31,0.48 -0.52,0.9 z"
       id="path12" />
    <path
       d="m 426.15,179.15 a 4.72,4.72 0 0 1 4.73,-4.72 h 60.7 a 4.73,4.73 0 1 1 0,9.45 h -60.7 a 4.72,4.72 0 0 1 -4.73,-4.73 z"
       id="path14" />
  </g>
</svg>
