<?xml version="1.0" encoding="UTF-8"?>
<svg id="Layer_2" data-name="Layer 2" xmlns="http://www.w3.org/2000/svg" viewBox="0 0 240.62 221.05">
  <defs>
    <style>
      .cls-1 {
        fill: #231f20;
        stroke-width: 0px;
      }
    </style>
  </defs>
  <g id="Layer_1-2" data-name="Layer 1">
    <path class="cls-1" d="m240.44,46.57C238.42,20.91,215.5.26,188.51.11c-28.14-.16-56.29-.12-84.43,0-18.57.08-33.33,10.39-39.95,27.75-2.31,6.05-4.22,12.26-6.29,18.4C38.81,102.63,19.77,159,.79,215.4c-.6,1.77-.54,3.76-.79,5.65,1.71-1.03,3.68-1.78,5.08-3.13,13.64-13.2,27.08-26.6,40.84-39.67,1.91-1.81,5.19-3.03,7.86-3.06,18.48-.26,36.97-.16,55.45-.13,9.15.02,17.79-2.1,25.97-6.14,20.81-10.26,32.67-32.93,28.2-53.88-.9-3.63-1.79-7.27-2.69-10.9,0,0,0,0,0,0,11.97-.37,24.09.37,35.87-1.33,27.97-4.05,46.1-27.95,43.87-56.22Zm-130.62,95.79c-15.16.11-30.32-.05-45.47.06-3.48.03-4.4-.78-3.03-4.27,2.18-5.56,3.75-11.37,5.82-16.98,4.03-10.9,12.86-17.08,24.43-17.11,8.82-.02,17.65.17,26.47.27,6.16.99,10.63,3.89,11.99,10.32.07.16.1.3.09.41.07,0,.14,0,.21,0-.06.07-.1.13-.16.2,4.45,15.86-3.83,26.99-20.35,27.11Zm78.09-71.22c-16.65.14-33.3.04-49.96.04v-.02c-16.49,0-32.97-.1-49.46.07-3.96.04-4.44-1.02-3.1-4.53,2.36-6.21,4.2-12.61,6.38-18.89,3.31-9.55,10.58-14.85,20.76-14.88,25.15-.08,50.29-.08,75.44,0,11.48.04,20.1,8.3,20.15,19.05.06,10.56-8.74,19.07-20.21,19.17Z"/>
  </g>
</svg>