<?xml version="1.0" encoding="UTF-8" standalone="no"?>
<svg
   xmlns:dc="http://purl.org/dc/elements/1.1/"
   xmlns:cc="http://creativecommons.org/ns#"
   xmlns:rdf="http://www.w3.org/1999/02/22-rdf-syntax-ns#"
   xmlns:svg="http://www.w3.org/2000/svg"
   xmlns="http://www.w3.org/2000/svg"
   xmlns:sodipodi="http://sodipodi.sourceforge.net/DTD/sodipodi-0.dtd"
   xmlns:inkscape="http://www.inkscape.org/namespaces/inkscape"
   width="234"
   height="190"
   viewBox="0 0 234 190"
   fill="none"
   version="1.1"
   id="svg6"
   sodipodi:docname="pulumi.svg"
   inkscape:version="1.0.1 (1.0.1+r74)">
  <metadata
     id="metadata12">
    <rdf:RDF>
      <cc:Work
         rdf:about="">
        <dc:format>image/svg+xml</dc:format>
        <dc:type
           rdf:resource="http://purl.org/dc/dcmitype/StillImage" />
      </cc:Work>
    </rdf:RDF>
  </metadata>
  <defs
     id="defs10" />
  <sodipodi:namedview
     pagecolor="#ffffff"
     bordercolor="#666666"
     borderopacity="1"
     objecttolerance="10"
     gridtolerance="10"
     guidetolerance="10"
     inkscape:pageopacity="0"
     inkscape:pageshadow="2"
     inkscape:window-width="1920"
     inkscape:window-height="1043"
     id="namedview8"
     showgrid="false"
     inkscape:zoom="4.5684211"
     inkscape:cx="117"
     inkscape:cy="112.51152"
     inkscape:window-x="1080"
     inkscape:window-y="427"
     inkscape:window-maximized="1"
     inkscape:current-layer="svg6"
     inkscape:document-rotation="0" />
  <path
     d="M120.368 35.6983C89.5277 35.6983 64.4375 60.7718 64.4375 91.5919V179.767C64.4375 185.418 69.0224 190 74.6771 190C80.3318 190 84.9167 185.418 84.9167 179.767V91.5919C84.9167 72.0563 100.82 56.1639 120.368 56.1639C139.917 56.1639 155.82 72.0563 155.82 91.5919C155.82 111.127 139.917 127.02 120.368 127.02C114.714 127.02 110.129 131.602 110.129 137.253C110.129 142.904 114.714 147.486 120.368 147.486C151.209 147.486 176.299 122.412 176.299 91.5919C176.299 60.7718 151.209 35.6983 120.368 35.6983Z"
     fill="#522768"
     id="path2"
     style="fill:#212121;fill-opacity:1" />
  <path
     d="M117.4 184.797C113.45 184.797 109.477 184.545 105.589 184.05L105.309 184.012C100.843 183.389 97.7283 179.267 98.3516 174.805C98.9749 170.346 103.1 167.236 107.55 167.85C107.591 167.855 107.732 167.874 107.752 167.876C110.863 168.273 114.14 168.48 117.4 168.48C135.258 168.48 152.624 162.165 166.299 150.698C167.695 149.527 169.442 148.857 171.264 148.793C197.287 147.892 217.672 126.795 217.672 100.764C217.672 91.9518 215.269 83.3385 210.72 75.8537C209.788 74.3196 209.388 72.5205 209.582 70.7358C209.764 69.0699 209.856 67.4229 209.856 65.8382C209.856 41.2064 189.805 21.1682 165.158 21.1682C161.05 21.1682 156.947 21.7389 152.962 22.8659C151.159 23.3744 149.229 23.2512 147.507 22.5081C137.972 18.3999 127.843 16.3169 117.4 16.3169C84.2113 16.3169 55.087 37.5183 44.9257 69.0743C44.0792 71.7049 41.9585 73.7271 39.2899 74.45C25.77 78.1091 16.3277 90.451 16.3277 104.46C16.3277 119.789 27.7501 133.015 42.8964 135.227C43.2167 135.273 43.5327 135.315 43.8516 135.353C48.3307 135.873 51.5386 139.923 51.0167 144.399C50.4963 148.874 46.4449 152.085 41.9643 151.56C41.486 151.505 41.0076 151.442 40.5336 151.371C17.4264 147.999 0 127.83 0 104.46C0 84.5988 12.4516 66.9362 30.7753 60.067C44.2256 23.9654 78.5175 0 117.4 0C129.124 0 140.529 2.16418 151.343 6.43896C155.881 5.38439 160.515 4.85131 165.158 4.85131C198.808 4.85131 226.184 32.2093 226.184 65.8382C226.184 67.1274 226.141 68.4398 226.054 69.7653C231.26 79.2274 234 89.8861 234 100.764C234 134.688 208.152 162.356 174.647 164.943C158.386 177.766 138.166 184.797 117.4 184.797Z"
     fill="#EE985D"
     id="path4"
     style="fill:#212121;fill-opacity:1" />
</svg>
