<svg width="600" height="600" xmlns="http://www.w3.org/2000/svg" fill="none">
 <defs>
  <clipPath id="a">
   <path id="svg_1" d="m0,0l148,0l0,24l-148,0l0,-24z" fill="#fff"/>
  </clipPath>
 </defs>
 <g>
  <title>Layer 1</title>
  <g stroke="null" id="svg_5">
   <path stroke="null" fill="#000000" id="svg_3" d="m124.56905,280.4286l-115.94673,237.67577a9.68726,9.68726 0 0 0 -0.54444,2.2904a4.95627,4.95627 0 0 0 1.31416,3.45437a4.71221,4.71221 0 0 0 3.32296,1.48313l155.44671,0l59.04347,-225.5667l140.52158,-109.82648l-243.15771,90.48951z"/>
   <path stroke="null" fill="#000000" id="svg_4" d="m591.92297,451.30734a4.82486,4.82486 0 0 0 -2.02757,-1.82105l-241.61826,-108.96289l190.74138,-195.67888c5.63213,-5.726 9.49952,-13.06654 11.07652,-21.04538a42.09076,42.09076 0 0 0 -2.25285,-23.8239a40.7766,40.7766 0 0 0 -14.81249,-18.47338a39.10574,39.10574 0 0 0 -22.28445,-6.83365l-4.01758,0l-471.50292,27.1844l66.62807,122.55509a8.63593,8.63593 0 0 0 9.42443,4.61834l346.50725,-92.12283l-189.52108,222.54412a9.06772,9.06772 0 0 0 -1.0701,9.96887a8.97386,8.97386 0 0 0 2.15898,2.74097l166.16653,143.05603l154.05746,-56.50901a4.73099,4.73099 0 0 0 2.30917,-1.8586l0.03755,-5.53826z"/>
  </g>
 </g>
</svg>