<?xml version="1.0" encoding="UTF-8" standalone="no"?>
<svg
   xmlns:dc="http://purl.org/dc/elements/1.1/"
   xmlns:cc="http://creativecommons.org/ns#"
   xmlns:rdf="http://www.w3.org/1999/02/22-rdf-syntax-ns#"
   xmlns:svg="http://www.w3.org/2000/svg"
   xmlns="http://www.w3.org/2000/svg"
   xmlns:sodipodi="http://sodipodi.sourceforge.net/DTD/sodipodi-0.dtd"
   xmlns:inkscape="http://www.inkscape.org/namespaces/inkscape"
   version="1.1"
   id="layer"
   x="0px"
   y="0px"
   viewBox="0 0 600 600"
   xml:space="preserve"
   sodipodi:docname="trivago.svg"
   width="600"
   height="600"
   inkscape:version="1.0.1 (1.0.1+r74)"><metadata
   id="metadata15"><rdf:RDF><cc:Work
       rdf:about=""><dc:format>image/svg+xml</dc:format><dc:type
         rdf:resource="http://purl.org/dc/dcmitype/StillImage" /><dc:title /></cc:Work></rdf:RDF></metadata><defs
   id="defs13" /><sodipodi:namedview
   pagecolor="#ffffff"
   bordercolor="#666666"
   borderopacity="1"
   objecttolerance="10"
   gridtolerance="10"
   guidetolerance="10"
   inkscape:pageopacity="0"
   inkscape:pageshadow="2"
   inkscape:window-width="1920"
   inkscape:window-height="1043"
   id="namedview11"
   showgrid="false"
   inkscape:zoom="0.66564417"
   inkscape:cx="528.89506"
   inkscape:cy="436.85297"
   inkscape:window-x="1080"
   inkscape:window-y="427"
   inkscape:window-maximized="1"
   inkscape:current-layer="layer"
   inkscape:document-rotation="0" />
<style
   type="text/css"
   id="style2">
	.st0{fill:#E3403D;}
	.st1{fill:#1391D2;}
	.st2{fill:#FC9E15;}
</style>


<g
   id="g843"
   transform="matrix(0.98884003,0,0,0.98884003,-13.422987,-13.172939)"><path
     class="st0"
     d="m 547.1,312.7 c 0,13 7.6,24.3 21.5,24.3 13.9,0 21.5,-11.3 21.5,-24.3 0,-13 -7.6,-24.3 -21.5,-24.3 -13.9,0 -21.5,11.3 -21.5,24.3 m -26.8,0 c -1.3,-26.7 19.4,-49.3 46,-50.6 15.7,-0.7 30.8,6.2 40.5,18.7 11.9,16.9 13.4,39 4,57.4 -12.9,23.4 -42.3,31.9 -65.6,19 -16,-8.9 -25.7,-26.1 -24.9,-44.5 M 489,264.3 v 12.9 h -0.4 c -1,-1.4 -2.1,-2.6 -3.4,-3.6 -19.1,-16.5 -51.8,-13.2 -64.2,9.9 -5.9,12.5 -7.7,26.5 -5.4,40.1 1.7,12.2 6.2,25.1 16.9,32.2 12.2,7.8 27.3,9.3 40.8,4.2 4.8,-1.9 9.1,-5.1 12.2,-9.2 h 0.3 v 9.3 c 0.4,6.2 -1.6,12.3 -5.8,16.9 -8.5,8.8 -24.8,8.2 -35.8,5.3 -6.1,-1.5 -11.9,-4.1 -17.1,-7.7 l -14.4,21.2 c 6.9,5.2 14.7,9 23,11.2 21.1,5.6 50.3,5.5 66.5,-11.3 9.2,-9.4 12.9,-23.3 12.9,-41.5 v -89.8 z m -7.4,66.1 c -8.3,8.8 -22.1,9.2 -30.8,0.9 -0.3,-0.3 -0.6,-0.6 -0.9,-0.9 -7.8,-10.5 -7.8,-24.8 0,-35.3 8.3,-8.8 22.1,-9.2 30.8,-0.9 0.3,0.3 0.6,0.6 0.9,0.9 7.8,10.4 7.8,24.8 0,35.3 -3.8,4.5 3.8,-4.5 0,0 z"
     id="path4"
     style="fill:#212121;fill-opacity:1" /><path
     class="st1"
     d="M 99.2,288.1 H 69.9 v 32.2 c 0,5.5 0.5,12.5 5.6,15.6 5.4,2.4 11.3,3 17.1,1.7 2.3,-0.2 4.6,-0.9 6.5,-2.3 V 360 c -3.7,1.2 -7.5,1.9 -11.4,2.4 -20.9,2.1 -50.2,-1.5 -50.2,-28.5 V 288 H 17 V 264.3 H 37.5 V 236 h 32.4 v 28.4 h 29.2 z m 82.9,-23.7 h 29.2 v 96.4 h -29.2 z m -1.2,-25.3 c -0.2,-8.7 6.7,-15.9 15.4,-16 8.7,-0.2 15.9,6.7 16,15.4 0,0.2 0,0.4 0,0.6 -0.2,8.7 -7.4,15.6 -16,15.4 -8.4,-0.2 -15.2,-7 -15.4,-15.4 m -73.8,25.3 h 30 v 15.8 h 0.3 c 2.5,-5.4 6.4,-10 11.3,-13.4 8.1,-4.4 17.4,-5.6 26.4,-3.5 v 27.1 c -6.1,-1.6 -18.8,-4.2 -27.7,1.2 -5.6,3.4 -10.2,7.6 -10.2,29 v 40.2 h -30 z"
     id="path6"
     style="fill:#212121;fill-opacity:1" /><path
     class="st2"
     d="m 215.3,264.4 h 32 l 24.3,65.6 h 0.4 l 22.5,-65.6 h 29.8 l -37.9,96.4 H 255 m 97.2,-38.4 c -5.9,3.6 -9.9,10.8 -4.5,16.3 5.3,5.4 14.8,4.9 21.4,2.6 7.4,-2 12.7,-8.7 12.9,-16.4 v -6 c 0.2,0.1 -22.3,-1.2 -29.8,3.5 z m 29.9,26.6 h -0.5 c -3.2,4.8 -7.8,8.6 -13.1,10.9 -21,8.6 -51.5,-0.1 -51.5,-26.4 0,-27.4 29.8,-33 51.7,-33.6 4.8,-0.1 9.2,-0.2 13.3,-0.2 0.2,-4.8 -1.9,-9.5 -5.6,-12.5 -7.8,-5.6 -18.2,-6.3 -26.7,-1.6 -4.1,2.1 -7.7,4.9 -10.8,8.4 L 323,277.7 c 5.6,-5.2 12.2,-9.1 19.4,-11.6 13.3,-4.7 27.8,-5.3 41.4,-1.6 12.1,3.6 21.1,13.7 23.2,26.1 1.3,7 2,14.1 1.8,21.2 v 48.9 h -26.9 z"
     id="path8"
     style="fill:#212121;fill-opacity:1" /></g>
</svg>
